<svg width="25" height="25" viewBox="0 0 25 25" fill="none" xmlns="http://www.w3.org/2000/svg">
<path d="M24.8389 8.49055C24.7168 8.36818 24.546 8.31016 24.3762 8.33333H17.7441V5.34589C17.7441 2.39342 15.3963 0 12.5001 0C9.60386 0 7.25605 2.39342 7.25605 5.34589V8.33333H0.623813C0.438712 8.33333 0.253669 8.33333 0.161089 8.49055C0.0367436 8.61238 -0.0209419 8.78874 0.00686761 8.96227L2.32043 21.8553C2.64363 23.6539 4.16701 24.97 5.9604 25H19.0396C20.8381 24.9549 22.3583 23.6284 22.6796 21.8239L24.9931 8.96227C25.0209 8.78874 24.9633 8.61238 24.8389 8.49055ZM8.48988 5.34589C8.48988 3.08814 10.2853 1.25786 12.5 1.25786C14.7147 1.25786 16.5101 3.08814 16.5101 5.34589V8.33333H8.48988V5.34589ZM21.4457 21.6666C21.2379 22.8585 20.227 23.7305 19.0396 23.7421H5.9604C4.77304 23.7305 3.76209 22.8585 3.55432 21.6666L1.36416 9.5912H23.6358L21.4457 21.6666Z" fill="white"/>
<path d="M17.1272 15.7233C17.4679 15.7233 17.7441 15.4417 17.7441 15.0944V13.2076C17.7441 12.8602 17.4679 12.5786 17.1272 12.5786C16.7865 12.5786 16.5102 12.8602 16.5102 13.2076V15.0944C16.5102 15.4417 16.7865 15.7233 17.1272 15.7233Z" fill="white"/>
<path d="M7.87295 15.7233C8.21369 15.7233 8.48989 15.4417 8.48989 15.0944V13.2076C8.48989 12.8602 8.21369 12.5786 7.87295 12.5786C7.53221 12.5786 7.256 12.8602 7.256 13.2076V15.0944C7.256 15.4417 7.53221 15.7233 7.87295 15.7233Z" fill="white"/>
</svg>
