<svg width="28" height="18" viewBox="0 0 28 18" fill="none" xmlns="http://www.w3.org/2000/svg">
<path fill-rule="evenodd" clip-rule="evenodd" d="M0.504719 1.31224C0.504719 0.846393 0.882362 0.46875 1.34821 0.46875H26.6529C27.1187 0.46875 27.4964 0.846393 27.4964 1.31224C27.4964 1.77808 27.1187 2.15573 26.6529 2.15573H1.34821C0.882362 2.15573 0.504719 1.77808 0.504719 1.31224ZM0.504456 8.99925C0.504456 8.5334 0.882098 8.15576 1.34794 8.15576H26.6526C27.1185 8.15576 27.4961 8.5334 27.4961 8.99925C27.4961 9.4651 27.1185 9.84274 26.6526 9.84274H1.34794C0.882098 9.84274 0.504456 9.4651 0.504456 8.99925ZM1.34794 15.8428C0.882098 15.8428 0.504456 16.2204 0.504456 16.6863C0.504456 17.1521 0.882098 17.5298 1.34794 17.5298H26.6526C27.1185 17.5298 27.4961 17.1521 27.4961 16.6863C27.4961 16.2204 27.1185 15.8428 26.6526 15.8428H1.34794Z" fill="#FFFFF0"/>
</svg>
