<svg width="30" height="31" viewBox="0 0 30 31" fill="none" xmlns="http://www.w3.org/2000/svg">
<path d="M3 4.5C2.44772 4.5 2 4.94772 2 5.5V7.5C2 8.05228 2.44772 8.5 3 8.5H5C5.55228 8.5 6 8.05228 6 7.5V5.5C6 4.94772 5.55228 4.5 5 4.5H3Z" fill="white"/>
<path d="M8.75 5.75C8.33579 5.75 8 6.08579 8 6.5C8 6.91421 8.33579 7.25 8.75 7.25H26.25C26.6642 7.25 27 6.91421 27 6.5C27 6.08579 26.6642 5.75 26.25 5.75H8.75Z" fill="white"/>
<path d="M2 14.5C2 13.9477 2.44772 13.5 3 13.5H5C5.55228 13.5 6 13.9477 6 14.5V16.5C6 17.0523 5.55228 17.5 5 17.5H3C2.44772 17.5 2 17.0523 2 16.5V14.5Z" fill="white"/>
<path d="M8.75 14.75C8.33579 14.75 8 15.0858 8 15.5C8 15.9142 8.33579 16.25 8.75 16.25H26.25C26.6642 16.25 27 15.9142 27 15.5C27 15.0858 26.6642 14.75 26.25 14.75H17.5H8.75Z" fill="white"/>
<path d="M2 23.5C2 22.9477 2.44772 22.5 3 22.5H5C5.55228 22.5 6 22.9477 6 23.5V25.5C6 26.0523 5.55228 26.5 5 26.5H3C2.44772 26.5 2 26.0523 2 25.5V23.5Z" fill="white"/>
<path d="M8.75 23.75C8.33579 23.75 8 24.0858 8 24.5C8 24.9142 8.33579 25.25 8.75 25.25H26.25C26.6642 25.25 27 24.9142 27 24.5C27 24.0858 26.6642 23.75 26.25 23.75H8.75Z" fill="white"/>
</svg>
